# xmcd
#
# Track frame offsets:
#	150
#	16000
#	34995
#	53425
#	75113
#	95546
#	116883
#	133716
#	148986
#	164732
#	183046
#
# Disc length: 2628 seconds
#
# Revision: 0
# Processed by: cddbd v1.5.2PL0 Copyright (c) Steve Scherf et al.
# Submitted via: EasyCDDAExtractor 12.0.4.1
#
DISCID=8a0a420b
DTITLE=Warren Milera - Headin Home
DYEAR=2009
DGENRE=Country
TTITLE0=It's Gotta Be You
TTITLE1=Heaven Help Me
TTITLE2=Footprints In The sand
TTITLE3=Headin Home
TTITLE4=I'm High On Love
TTITLE5=Time To Make A Change
TTITLE6=Rodeo Clown
TTITLE7=Please Don't Let Me Go
TTITLE8=Legends Of The Past
TTITLE9=My Tears Taste Like Wine
TTITLE10=Eight Second Ride
EXTD=
EXTT0=
EXTT1=
EXTT2=
EXTT3=
EXTT4=
EXTT5=
EXTT6=
EXTT7=
EXTT8=
EXTT9=
EXTT10=
PLAYORDER=
